M48
; DRILL file KiCad 10.0.3 date 2026-06-26T10:11:33
; FORMAT={-:-/ absolute / inch / decimal}
; #@! TF.CreationDate,2026-06-26T10:11:33+03:00
; #@! TF.GenerationSoftware,Kicad,Pcbnew,10.0.3
; #@! TF.FileFunction,Plated,1,2,PTH
FMAT,2
INCH
; #@! TA.AperFunction,Plated,PTH,ViaDrill
T1C0.0118
; #@! TA.AperFunction,Plated,PTH,ComponentDrill
T2C0.0130
; #@! TA.AperFunction,Plated,PTH,ComponentDrill
T3C0.0394
; #@! TA.AperFunction,Plated,PTH,ComponentDrill
T4C0.0472
%
G90
G05
T1
X3.5616Y-3.8632
X3.5616Y-4.0896
X3.6116Y-3.8632
X3.6617Y-4.0895
X3.8923Y-3.8494
X3.8923Y-4.0758
X3.9423Y-3.8494
X3.9923Y-4.0758
X4.9488Y-4.4331
X4.9774Y-4.1575
X4.9906Y-4.3846
T2
X3.5354Y-3.9508
X3.5354Y-4.002
X3.5866Y-3.9508
X3.5866Y-4.002
X3.6378Y-3.9508
X3.6378Y-4.002
X3.8661Y-3.937
X3.8661Y-3.9882
X3.9173Y-3.937
X3.9173Y-3.9882
X3.9685Y-3.937
X3.9685Y-3.9882
T3
X4.1283Y-3.798
X4.2283Y-3.798
X4.3283Y-3.798
X4.4283Y-3.798
X4.5283Y-3.798
X4.6283Y-3.798
X4.7283Y-3.798
X4.8283Y-3.798
X4.9283Y-3.798
T4
X3.4961Y-4.6299
X3.5961Y-4.6299
X3.7559Y-4.6299
X3.8559Y-4.6299
X4.0173Y-4.6299
X4.1173Y-4.6299
M30
