%TF.GenerationSoftware,KiCad,Pcbnew,10.0.3*%
%TF.CreationDate,2026-06-26T10:11:33+03:00*%
%TF.ProjectId,balancing-robot-power-board,62616c61-6e63-4696-9e67-2d726f626f74,P.Baranchuk*%
%TF.SameCoordinates,Original*%
%TF.FileFunction,Other,Comment*%
%FSLAX46Y46*%
G04 Gerber Fmt 4.6, Leading zero omitted, Abs format (unit mm)*
G04 Created by KiCad (PCBNEW 10.0.3) date 2026-06-26 10:11:33*
%MOMM*%
%LPD*%
G01*
G04 APERTURE LIST*
%ADD10C,0.040000*%
G04 APERTURE END LIST*
D10*
X122530953Y-108640443D02*
X122530953Y-108440443D01*
X122645238Y-108640443D02*
X122559524Y-108526158D01*
X122645238Y-108440443D02*
X122530953Y-108554729D01*
X122730953Y-108535681D02*
X122797619Y-108535681D01*
X122826191Y-108640443D02*
X122730953Y-108640443D01*
X122730953Y-108640443D02*
X122730953Y-108440443D01*
X122730953Y-108440443D02*
X122826191Y-108440443D01*
X122911905Y-108535681D02*
X122978571Y-108535681D01*
X123007143Y-108640443D02*
X122911905Y-108640443D01*
X122911905Y-108640443D02*
X122911905Y-108440443D01*
X122911905Y-108440443D02*
X123007143Y-108440443D01*
X123092857Y-108640443D02*
X123092857Y-108440443D01*
X123092857Y-108440443D02*
X123169047Y-108440443D01*
X123169047Y-108440443D02*
X123188095Y-108449967D01*
X123188095Y-108449967D02*
X123197618Y-108459491D01*
X123197618Y-108459491D02*
X123207142Y-108478539D01*
X123207142Y-108478539D02*
X123207142Y-108507110D01*
X123207142Y-108507110D02*
X123197618Y-108526158D01*
X123197618Y-108526158D02*
X123188095Y-108535681D01*
X123188095Y-108535681D02*
X123169047Y-108545205D01*
X123169047Y-108545205D02*
X123092857Y-108545205D01*
X123330952Y-108440443D02*
X123369047Y-108440443D01*
X123369047Y-108440443D02*
X123388095Y-108449967D01*
X123388095Y-108449967D02*
X123407142Y-108469015D01*
X123407142Y-108469015D02*
X123416666Y-108507110D01*
X123416666Y-108507110D02*
X123416666Y-108573777D01*
X123416666Y-108573777D02*
X123407142Y-108611872D01*
X123407142Y-108611872D02*
X123388095Y-108630920D01*
X123388095Y-108630920D02*
X123369047Y-108640443D01*
X123369047Y-108640443D02*
X123330952Y-108640443D01*
X123330952Y-108640443D02*
X123311904Y-108630920D01*
X123311904Y-108630920D02*
X123292857Y-108611872D01*
X123292857Y-108611872D02*
X123283333Y-108573777D01*
X123283333Y-108573777D02*
X123283333Y-108507110D01*
X123283333Y-108507110D02*
X123292857Y-108469015D01*
X123292857Y-108469015D02*
X123311904Y-108449967D01*
X123311904Y-108449967D02*
X123330952Y-108440443D01*
X123502381Y-108440443D02*
X123502381Y-108602348D01*
X123502381Y-108602348D02*
X123511904Y-108621396D01*
X123511904Y-108621396D02*
X123521428Y-108630920D01*
X123521428Y-108630920D02*
X123540476Y-108640443D01*
X123540476Y-108640443D02*
X123578571Y-108640443D01*
X123578571Y-108640443D02*
X123597619Y-108630920D01*
X123597619Y-108630920D02*
X123607142Y-108621396D01*
X123607142Y-108621396D02*
X123616666Y-108602348D01*
X123616666Y-108602348D02*
X123616666Y-108440443D01*
X123683333Y-108440443D02*
X123797619Y-108440443D01*
X123740476Y-108640443D02*
X123740476Y-108440443D01*
X122407143Y-109040443D02*
X122407143Y-108840443D01*
X122407143Y-108840443D02*
X122521428Y-109040443D01*
X122521428Y-109040443D02*
X122521428Y-108840443D01*
X122645238Y-109040443D02*
X122626190Y-109030920D01*
X122626190Y-109030920D02*
X122616667Y-109021396D01*
X122616667Y-109021396D02*
X122607143Y-109002348D01*
X122607143Y-109002348D02*
X122607143Y-108945205D01*
X122607143Y-108945205D02*
X122616667Y-108926158D01*
X122616667Y-108926158D02*
X122626190Y-108916634D01*
X122626190Y-108916634D02*
X122645238Y-108907110D01*
X122645238Y-108907110D02*
X122673809Y-108907110D01*
X122673809Y-108907110D02*
X122692857Y-108916634D01*
X122692857Y-108916634D02*
X122702381Y-108926158D01*
X122702381Y-108926158D02*
X122711905Y-108945205D01*
X122711905Y-108945205D02*
X122711905Y-109002348D01*
X122711905Y-109002348D02*
X122702381Y-109021396D01*
X122702381Y-109021396D02*
X122692857Y-109030920D01*
X122692857Y-109030920D02*
X122673809Y-109040443D01*
X122673809Y-109040443D02*
X122645238Y-109040443D01*
X123064285Y-109021396D02*
X123054761Y-109030920D01*
X123054761Y-109030920D02*
X123026190Y-109040443D01*
X123026190Y-109040443D02*
X123007142Y-109040443D01*
X123007142Y-109040443D02*
X122978571Y-109030920D01*
X122978571Y-109030920D02*
X122959523Y-109011872D01*
X122959523Y-109011872D02*
X122950000Y-108992824D01*
X122950000Y-108992824D02*
X122940476Y-108954729D01*
X122940476Y-108954729D02*
X122940476Y-108926158D01*
X122940476Y-108926158D02*
X122950000Y-108888062D01*
X122950000Y-108888062D02*
X122959523Y-108869015D01*
X122959523Y-108869015D02*
X122978571Y-108849967D01*
X122978571Y-108849967D02*
X123007142Y-108840443D01*
X123007142Y-108840443D02*
X123026190Y-108840443D01*
X123026190Y-108840443D02*
X123054761Y-108849967D01*
X123054761Y-108849967D02*
X123064285Y-108859491D01*
X123178571Y-109040443D02*
X123159523Y-109030920D01*
X123159523Y-109030920D02*
X123150000Y-109021396D01*
X123150000Y-109021396D02*
X123140476Y-109002348D01*
X123140476Y-109002348D02*
X123140476Y-108945205D01*
X123140476Y-108945205D02*
X123150000Y-108926158D01*
X123150000Y-108926158D02*
X123159523Y-108916634D01*
X123159523Y-108916634D02*
X123178571Y-108907110D01*
X123178571Y-108907110D02*
X123207142Y-108907110D01*
X123207142Y-108907110D02*
X123226190Y-108916634D01*
X123226190Y-108916634D02*
X123235714Y-108926158D01*
X123235714Y-108926158D02*
X123245238Y-108945205D01*
X123245238Y-108945205D02*
X123245238Y-109002348D01*
X123245238Y-109002348D02*
X123235714Y-109021396D01*
X123235714Y-109021396D02*
X123226190Y-109030920D01*
X123226190Y-109030920D02*
X123207142Y-109040443D01*
X123207142Y-109040443D02*
X123178571Y-109040443D01*
X123330952Y-108907110D02*
X123330952Y-109107110D01*
X123330952Y-108916634D02*
X123349999Y-108907110D01*
X123349999Y-108907110D02*
X123388094Y-108907110D01*
X123388094Y-108907110D02*
X123407142Y-108916634D01*
X123407142Y-108916634D02*
X123416666Y-108926158D01*
X123416666Y-108926158D02*
X123426190Y-108945205D01*
X123426190Y-108945205D02*
X123426190Y-109002348D01*
X123426190Y-109002348D02*
X123416666Y-109021396D01*
X123416666Y-109021396D02*
X123407142Y-109030920D01*
X123407142Y-109030920D02*
X123388094Y-109040443D01*
X123388094Y-109040443D02*
X123349999Y-109040443D01*
X123349999Y-109040443D02*
X123330952Y-109030920D01*
X123511904Y-108907110D02*
X123511904Y-109107110D01*
X123511904Y-108916634D02*
X123530951Y-108907110D01*
X123530951Y-108907110D02*
X123569046Y-108907110D01*
X123569046Y-108907110D02*
X123588094Y-108916634D01*
X123588094Y-108916634D02*
X123597618Y-108926158D01*
X123597618Y-108926158D02*
X123607142Y-108945205D01*
X123607142Y-108945205D02*
X123607142Y-109002348D01*
X123607142Y-109002348D02*
X123597618Y-109021396D01*
X123597618Y-109021396D02*
X123588094Y-109030920D01*
X123588094Y-109030920D02*
X123569046Y-109040443D01*
X123569046Y-109040443D02*
X123530951Y-109040443D01*
X123530951Y-109040443D02*
X123511904Y-109030920D01*
X123769046Y-109030920D02*
X123749998Y-109040443D01*
X123749998Y-109040443D02*
X123711903Y-109040443D01*
X123711903Y-109040443D02*
X123692856Y-109030920D01*
X123692856Y-109030920D02*
X123683332Y-109011872D01*
X123683332Y-109011872D02*
X123683332Y-108935681D01*
X123683332Y-108935681D02*
X123692856Y-108916634D01*
X123692856Y-108916634D02*
X123711903Y-108907110D01*
X123711903Y-108907110D02*
X123749998Y-108907110D01*
X123749998Y-108907110D02*
X123769046Y-108916634D01*
X123769046Y-108916634D02*
X123778570Y-108935681D01*
X123778570Y-108935681D02*
X123778570Y-108954729D01*
X123778570Y-108954729D02*
X123683332Y-108973777D01*
X123864285Y-109040443D02*
X123864285Y-108907110D01*
X123864285Y-108945205D02*
X123873808Y-108926158D01*
X123873808Y-108926158D02*
X123883332Y-108916634D01*
X123883332Y-108916634D02*
X123902380Y-108907110D01*
X123902380Y-108907110D02*
X123921427Y-108907110D01*
X122121428Y-109390443D02*
X122121428Y-109190443D01*
X122121428Y-109190443D02*
X122169047Y-109190443D01*
X122169047Y-109190443D02*
X122197618Y-109199967D01*
X122197618Y-109199967D02*
X122216666Y-109219015D01*
X122216666Y-109219015D02*
X122226189Y-109238062D01*
X122226189Y-109238062D02*
X122235713Y-109276158D01*
X122235713Y-109276158D02*
X122235713Y-109304729D01*
X122235713Y-109304729D02*
X122226189Y-109342824D01*
X122226189Y-109342824D02*
X122216666Y-109361872D01*
X122216666Y-109361872D02*
X122197618Y-109380920D01*
X122197618Y-109380920D02*
X122169047Y-109390443D01*
X122169047Y-109390443D02*
X122121428Y-109390443D01*
X122321428Y-109390443D02*
X122321428Y-109257110D01*
X122321428Y-109190443D02*
X122311904Y-109199967D01*
X122311904Y-109199967D02*
X122321428Y-109209491D01*
X122321428Y-109209491D02*
X122330951Y-109199967D01*
X122330951Y-109199967D02*
X122321428Y-109190443D01*
X122321428Y-109190443D02*
X122321428Y-109209491D01*
X122416666Y-109390443D02*
X122416666Y-109257110D01*
X122416666Y-109295205D02*
X122426189Y-109276158D01*
X122426189Y-109276158D02*
X122435713Y-109266634D01*
X122435713Y-109266634D02*
X122454761Y-109257110D01*
X122454761Y-109257110D02*
X122473808Y-109257110D01*
X122616666Y-109380920D02*
X122597618Y-109390443D01*
X122597618Y-109390443D02*
X122559523Y-109390443D01*
X122559523Y-109390443D02*
X122540476Y-109380920D01*
X122540476Y-109380920D02*
X122530952Y-109361872D01*
X122530952Y-109361872D02*
X122530952Y-109285681D01*
X122530952Y-109285681D02*
X122540476Y-109266634D01*
X122540476Y-109266634D02*
X122559523Y-109257110D01*
X122559523Y-109257110D02*
X122597618Y-109257110D01*
X122597618Y-109257110D02*
X122616666Y-109266634D01*
X122616666Y-109266634D02*
X122626190Y-109285681D01*
X122626190Y-109285681D02*
X122626190Y-109304729D01*
X122626190Y-109304729D02*
X122530952Y-109323777D01*
X122797619Y-109380920D02*
X122778571Y-109390443D01*
X122778571Y-109390443D02*
X122740476Y-109390443D01*
X122740476Y-109390443D02*
X122721428Y-109380920D01*
X122721428Y-109380920D02*
X122711905Y-109371396D01*
X122711905Y-109371396D02*
X122702381Y-109352348D01*
X122702381Y-109352348D02*
X122702381Y-109295205D01*
X122702381Y-109295205D02*
X122711905Y-109276158D01*
X122711905Y-109276158D02*
X122721428Y-109266634D01*
X122721428Y-109266634D02*
X122740476Y-109257110D01*
X122740476Y-109257110D02*
X122778571Y-109257110D01*
X122778571Y-109257110D02*
X122797619Y-109266634D01*
X122854762Y-109257110D02*
X122930953Y-109257110D01*
X122883334Y-109190443D02*
X122883334Y-109361872D01*
X122883334Y-109361872D02*
X122892857Y-109380920D01*
X122892857Y-109380920D02*
X122911905Y-109390443D01*
X122911905Y-109390443D02*
X122930953Y-109390443D01*
X123026191Y-109390443D02*
X123007143Y-109380920D01*
X123007143Y-109380920D02*
X122997620Y-109361872D01*
X122997620Y-109361872D02*
X122997620Y-109190443D01*
X123083334Y-109257110D02*
X123130953Y-109390443D01*
X123178572Y-109257110D02*
X123130953Y-109390443D01*
X123130953Y-109390443D02*
X123111905Y-109438062D01*
X123111905Y-109438062D02*
X123102382Y-109447586D01*
X123102382Y-109447586D02*
X123083334Y-109457110D01*
X123473810Y-109285681D02*
X123502382Y-109295205D01*
X123502382Y-109295205D02*
X123511905Y-109304729D01*
X123511905Y-109304729D02*
X123521429Y-109323777D01*
X123521429Y-109323777D02*
X123521429Y-109352348D01*
X123521429Y-109352348D02*
X123511905Y-109371396D01*
X123511905Y-109371396D02*
X123502382Y-109380920D01*
X123502382Y-109380920D02*
X123483334Y-109390443D01*
X123483334Y-109390443D02*
X123407144Y-109390443D01*
X123407144Y-109390443D02*
X123407144Y-109190443D01*
X123407144Y-109190443D02*
X123473810Y-109190443D01*
X123473810Y-109190443D02*
X123492858Y-109199967D01*
X123492858Y-109199967D02*
X123502382Y-109209491D01*
X123502382Y-109209491D02*
X123511905Y-109228539D01*
X123511905Y-109228539D02*
X123511905Y-109247586D01*
X123511905Y-109247586D02*
X123502382Y-109266634D01*
X123502382Y-109266634D02*
X123492858Y-109276158D01*
X123492858Y-109276158D02*
X123473810Y-109285681D01*
X123473810Y-109285681D02*
X123407144Y-109285681D01*
X123683334Y-109380920D02*
X123664286Y-109390443D01*
X123664286Y-109390443D02*
X123626191Y-109390443D01*
X123626191Y-109390443D02*
X123607144Y-109380920D01*
X123607144Y-109380920D02*
X123597620Y-109361872D01*
X123597620Y-109361872D02*
X123597620Y-109285681D01*
X123597620Y-109285681D02*
X123607144Y-109266634D01*
X123607144Y-109266634D02*
X123626191Y-109257110D01*
X123626191Y-109257110D02*
X123664286Y-109257110D01*
X123664286Y-109257110D02*
X123683334Y-109266634D01*
X123683334Y-109266634D02*
X123692858Y-109285681D01*
X123692858Y-109285681D02*
X123692858Y-109304729D01*
X123692858Y-109304729D02*
X123597620Y-109323777D01*
X123807144Y-109390443D02*
X123788096Y-109380920D01*
X123788096Y-109380920D02*
X123778573Y-109361872D01*
X123778573Y-109361872D02*
X123778573Y-109190443D01*
X123911906Y-109390443D02*
X123892858Y-109380920D01*
X123892858Y-109380920D02*
X123883335Y-109371396D01*
X123883335Y-109371396D02*
X123873811Y-109352348D01*
X123873811Y-109352348D02*
X123873811Y-109295205D01*
X123873811Y-109295205D02*
X123883335Y-109276158D01*
X123883335Y-109276158D02*
X123892858Y-109266634D01*
X123892858Y-109266634D02*
X123911906Y-109257110D01*
X123911906Y-109257110D02*
X123940477Y-109257110D01*
X123940477Y-109257110D02*
X123959525Y-109266634D01*
X123959525Y-109266634D02*
X123969049Y-109276158D01*
X123969049Y-109276158D02*
X123978573Y-109295205D01*
X123978573Y-109295205D02*
X123978573Y-109352348D01*
X123978573Y-109352348D02*
X123969049Y-109371396D01*
X123969049Y-109371396D02*
X123959525Y-109380920D01*
X123959525Y-109380920D02*
X123940477Y-109390443D01*
X123940477Y-109390443D02*
X123911906Y-109390443D01*
X124045239Y-109257110D02*
X124083334Y-109390443D01*
X124083334Y-109390443D02*
X124121429Y-109295205D01*
X124121429Y-109295205D02*
X124159525Y-109390443D01*
X124159525Y-109390443D02*
X124197620Y-109257110D01*
X122483333Y-109671396D02*
X122473809Y-109680920D01*
X122473809Y-109680920D02*
X122445238Y-109690443D01*
X122445238Y-109690443D02*
X122426190Y-109690443D01*
X122426190Y-109690443D02*
X122397619Y-109680920D01*
X122397619Y-109680920D02*
X122378571Y-109661872D01*
X122378571Y-109661872D02*
X122369048Y-109642824D01*
X122369048Y-109642824D02*
X122359524Y-109604729D01*
X122359524Y-109604729D02*
X122359524Y-109576158D01*
X122359524Y-109576158D02*
X122369048Y-109538062D01*
X122369048Y-109538062D02*
X122378571Y-109519015D01*
X122378571Y-109519015D02*
X122397619Y-109499967D01*
X122397619Y-109499967D02*
X122426190Y-109490443D01*
X122426190Y-109490443D02*
X122445238Y-109490443D01*
X122445238Y-109490443D02*
X122473809Y-109499967D01*
X122473809Y-109499967D02*
X122483333Y-109509491D01*
X122597619Y-109690443D02*
X122578571Y-109680920D01*
X122578571Y-109680920D02*
X122569048Y-109671396D01*
X122569048Y-109671396D02*
X122559524Y-109652348D01*
X122559524Y-109652348D02*
X122559524Y-109595205D01*
X122559524Y-109595205D02*
X122569048Y-109576158D01*
X122569048Y-109576158D02*
X122578571Y-109566634D01*
X122578571Y-109566634D02*
X122597619Y-109557110D01*
X122597619Y-109557110D02*
X122626190Y-109557110D01*
X122626190Y-109557110D02*
X122645238Y-109566634D01*
X122645238Y-109566634D02*
X122654762Y-109576158D01*
X122654762Y-109576158D02*
X122664286Y-109595205D01*
X122664286Y-109595205D02*
X122664286Y-109652348D01*
X122664286Y-109652348D02*
X122654762Y-109671396D01*
X122654762Y-109671396D02*
X122645238Y-109680920D01*
X122645238Y-109680920D02*
X122626190Y-109690443D01*
X122626190Y-109690443D02*
X122597619Y-109690443D01*
X122750000Y-109690443D02*
X122750000Y-109557110D01*
X122750000Y-109576158D02*
X122759523Y-109566634D01*
X122759523Y-109566634D02*
X122778571Y-109557110D01*
X122778571Y-109557110D02*
X122807142Y-109557110D01*
X122807142Y-109557110D02*
X122826190Y-109566634D01*
X122826190Y-109566634D02*
X122835714Y-109585681D01*
X122835714Y-109585681D02*
X122835714Y-109690443D01*
X122835714Y-109585681D02*
X122845238Y-109566634D01*
X122845238Y-109566634D02*
X122864285Y-109557110D01*
X122864285Y-109557110D02*
X122892857Y-109557110D01*
X122892857Y-109557110D02*
X122911904Y-109566634D01*
X122911904Y-109566634D02*
X122921428Y-109585681D01*
X122921428Y-109585681D02*
X122921428Y-109690443D01*
X123016667Y-109557110D02*
X123016667Y-109757110D01*
X123016667Y-109566634D02*
X123035714Y-109557110D01*
X123035714Y-109557110D02*
X123073809Y-109557110D01*
X123073809Y-109557110D02*
X123092857Y-109566634D01*
X123092857Y-109566634D02*
X123102381Y-109576158D01*
X123102381Y-109576158D02*
X123111905Y-109595205D01*
X123111905Y-109595205D02*
X123111905Y-109652348D01*
X123111905Y-109652348D02*
X123102381Y-109671396D01*
X123102381Y-109671396D02*
X123092857Y-109680920D01*
X123092857Y-109680920D02*
X123073809Y-109690443D01*
X123073809Y-109690443D02*
X123035714Y-109690443D01*
X123035714Y-109690443D02*
X123016667Y-109680920D01*
X123226190Y-109690443D02*
X123207142Y-109680920D01*
X123207142Y-109680920D02*
X123197619Y-109671396D01*
X123197619Y-109671396D02*
X123188095Y-109652348D01*
X123188095Y-109652348D02*
X123188095Y-109595205D01*
X123188095Y-109595205D02*
X123197619Y-109576158D01*
X123197619Y-109576158D02*
X123207142Y-109566634D01*
X123207142Y-109566634D02*
X123226190Y-109557110D01*
X123226190Y-109557110D02*
X123254761Y-109557110D01*
X123254761Y-109557110D02*
X123273809Y-109566634D01*
X123273809Y-109566634D02*
X123283333Y-109576158D01*
X123283333Y-109576158D02*
X123292857Y-109595205D01*
X123292857Y-109595205D02*
X123292857Y-109652348D01*
X123292857Y-109652348D02*
X123283333Y-109671396D01*
X123283333Y-109671396D02*
X123273809Y-109680920D01*
X123273809Y-109680920D02*
X123254761Y-109690443D01*
X123254761Y-109690443D02*
X123226190Y-109690443D01*
X123378571Y-109557110D02*
X123378571Y-109690443D01*
X123378571Y-109576158D02*
X123388094Y-109566634D01*
X123388094Y-109566634D02*
X123407142Y-109557110D01*
X123407142Y-109557110D02*
X123435713Y-109557110D01*
X123435713Y-109557110D02*
X123454761Y-109566634D01*
X123454761Y-109566634D02*
X123464285Y-109585681D01*
X123464285Y-109585681D02*
X123464285Y-109690443D01*
X123635713Y-109680920D02*
X123616665Y-109690443D01*
X123616665Y-109690443D02*
X123578570Y-109690443D01*
X123578570Y-109690443D02*
X123559523Y-109680920D01*
X123559523Y-109680920D02*
X123549999Y-109661872D01*
X123549999Y-109661872D02*
X123549999Y-109585681D01*
X123549999Y-109585681D02*
X123559523Y-109566634D01*
X123559523Y-109566634D02*
X123578570Y-109557110D01*
X123578570Y-109557110D02*
X123616665Y-109557110D01*
X123616665Y-109557110D02*
X123635713Y-109566634D01*
X123635713Y-109566634D02*
X123645237Y-109585681D01*
X123645237Y-109585681D02*
X123645237Y-109604729D01*
X123645237Y-109604729D02*
X123549999Y-109623777D01*
X123730952Y-109557110D02*
X123730952Y-109690443D01*
X123730952Y-109576158D02*
X123740475Y-109566634D01*
X123740475Y-109566634D02*
X123759523Y-109557110D01*
X123759523Y-109557110D02*
X123788094Y-109557110D01*
X123788094Y-109557110D02*
X123807142Y-109566634D01*
X123807142Y-109566634D02*
X123816666Y-109585681D01*
X123816666Y-109585681D02*
X123816666Y-109690443D01*
X123883332Y-109557110D02*
X123959523Y-109557110D01*
X123911904Y-109490443D02*
X123911904Y-109661872D01*
X123911904Y-109661872D02*
X123921427Y-109680920D01*
X123921427Y-109680920D02*
X123940475Y-109690443D01*
X123940475Y-109690443D02*
X123959523Y-109690443D01*
M02*
