%TF.GenerationSoftware,KiCad,Pcbnew,10.0.3*%
%TF.CreationDate,2026-06-26T09:29:52+03:00*%
%TF.ProjectId,balancing-robot-power-board,62616c61-6e63-4696-9e67-2d726f626f74,P.Baranchuk*%
%TF.SameCoordinates,Original*%
%TF.FileFunction,Legend,Top*%
%TF.FilePolarity,Positive*%
%FSLAX46Y46*%
G04 Gerber Fmt 4.6, Leading zero omitted, Abs format (unit mm)*
G04 Created by KiCad (PCBNEW 10.0.3) date 2026-06-26 09:29:52*
%MOMM*%
%LPD*%
G01*
G04 APERTURE LIST*
%ADD10C,0.150000*%
%ADD11C,0.120000*%
G04 APERTURE END LIST*
D10*
X103376666Y-112834819D02*
X103376666Y-113549104D01*
X103376666Y-113549104D02*
X103329047Y-113691961D01*
X103329047Y-113691961D02*
X103233809Y-113787200D01*
X103233809Y-113787200D02*
X103090952Y-113834819D01*
X103090952Y-113834819D02*
X102995714Y-113834819D01*
X104281428Y-113168152D02*
X104281428Y-113834819D01*
X104043333Y-112787200D02*
X103805238Y-113501485D01*
X103805238Y-113501485D02*
X104424285Y-113501485D01*
X102498095Y-100124819D02*
X102498095Y-100934342D01*
X102498095Y-100934342D02*
X102545714Y-101029580D01*
X102545714Y-101029580D02*
X102593333Y-101077200D01*
X102593333Y-101077200D02*
X102688571Y-101124819D01*
X102688571Y-101124819D02*
X102879047Y-101124819D01*
X102879047Y-101124819D02*
X102974285Y-101077200D01*
X102974285Y-101077200D02*
X103021904Y-101029580D01*
X103021904Y-101029580D02*
X103069523Y-100934342D01*
X103069523Y-100934342D02*
X103069523Y-100124819D01*
X103450476Y-100124819D02*
X104069523Y-100124819D01*
X104069523Y-100124819D02*
X103736190Y-100505771D01*
X103736190Y-100505771D02*
X103879047Y-100505771D01*
X103879047Y-100505771D02*
X103974285Y-100553390D01*
X103974285Y-100553390D02*
X104021904Y-100601009D01*
X104021904Y-100601009D02*
X104069523Y-100696247D01*
X104069523Y-100696247D02*
X104069523Y-100934342D01*
X104069523Y-100934342D02*
X104021904Y-101029580D01*
X104021904Y-101029580D02*
X103974285Y-101077200D01*
X103974285Y-101077200D02*
X103879047Y-101124819D01*
X103879047Y-101124819D02*
X103593333Y-101124819D01*
X103593333Y-101124819D02*
X103498095Y-101077200D01*
X103498095Y-101077200D02*
X103450476Y-101029580D01*
X90466666Y-112654819D02*
X90466666Y-113369104D01*
X90466666Y-113369104D02*
X90419047Y-113511961D01*
X90419047Y-113511961D02*
X90323809Y-113607200D01*
X90323809Y-113607200D02*
X90180952Y-113654819D01*
X90180952Y-113654819D02*
X90085714Y-113654819D01*
X90895238Y-112750057D02*
X90942857Y-112702438D01*
X90942857Y-112702438D02*
X91038095Y-112654819D01*
X91038095Y-112654819D02*
X91276190Y-112654819D01*
X91276190Y-112654819D02*
X91371428Y-112702438D01*
X91371428Y-112702438D02*
X91419047Y-112750057D01*
X91419047Y-112750057D02*
X91466666Y-112845295D01*
X91466666Y-112845295D02*
X91466666Y-112940533D01*
X91466666Y-112940533D02*
X91419047Y-113083390D01*
X91419047Y-113083390D02*
X90847619Y-113654819D01*
X90847619Y-113654819D02*
X91466666Y-113654819D01*
X94098095Y-100454819D02*
X94098095Y-101264342D01*
X94098095Y-101264342D02*
X94145714Y-101359580D01*
X94145714Y-101359580D02*
X94193333Y-101407200D01*
X94193333Y-101407200D02*
X94288571Y-101454819D01*
X94288571Y-101454819D02*
X94479047Y-101454819D01*
X94479047Y-101454819D02*
X94574285Y-101407200D01*
X94574285Y-101407200D02*
X94621904Y-101359580D01*
X94621904Y-101359580D02*
X94669523Y-101264342D01*
X94669523Y-101264342D02*
X94669523Y-100454819D01*
X95098095Y-100550057D02*
X95145714Y-100502438D01*
X95145714Y-100502438D02*
X95240952Y-100454819D01*
X95240952Y-100454819D02*
X95479047Y-100454819D01*
X95479047Y-100454819D02*
X95574285Y-100502438D01*
X95574285Y-100502438D02*
X95621904Y-100550057D01*
X95621904Y-100550057D02*
X95669523Y-100645295D01*
X95669523Y-100645295D02*
X95669523Y-100740533D01*
X95669523Y-100740533D02*
X95621904Y-100883390D01*
X95621904Y-100883390D02*
X95050476Y-101454819D01*
X95050476Y-101454819D02*
X95669523Y-101454819D01*
X123183333Y-103224819D02*
X122850000Y-102748628D01*
X122611905Y-103224819D02*
X122611905Y-102224819D01*
X122611905Y-102224819D02*
X122992857Y-102224819D01*
X122992857Y-102224819D02*
X123088095Y-102272438D01*
X123088095Y-102272438D02*
X123135714Y-102320057D01*
X123135714Y-102320057D02*
X123183333Y-102415295D01*
X123183333Y-102415295D02*
X123183333Y-102558152D01*
X123183333Y-102558152D02*
X123135714Y-102653390D01*
X123135714Y-102653390D02*
X123088095Y-102701009D01*
X123088095Y-102701009D02*
X122992857Y-102748628D01*
X122992857Y-102748628D02*
X122611905Y-102748628D01*
X123564286Y-102320057D02*
X123611905Y-102272438D01*
X123611905Y-102272438D02*
X123707143Y-102224819D01*
X123707143Y-102224819D02*
X123945238Y-102224819D01*
X123945238Y-102224819D02*
X124040476Y-102272438D01*
X124040476Y-102272438D02*
X124088095Y-102320057D01*
X124088095Y-102320057D02*
X124135714Y-102415295D01*
X124135714Y-102415295D02*
X124135714Y-102510533D01*
X124135714Y-102510533D02*
X124088095Y-102653390D01*
X124088095Y-102653390D02*
X123516667Y-103224819D01*
X123516667Y-103224819D02*
X124135714Y-103224819D01*
X105533333Y-111059580D02*
X105485714Y-111107200D01*
X105485714Y-111107200D02*
X105342857Y-111154819D01*
X105342857Y-111154819D02*
X105247619Y-111154819D01*
X105247619Y-111154819D02*
X105104762Y-111107200D01*
X105104762Y-111107200D02*
X105009524Y-111011961D01*
X105009524Y-111011961D02*
X104961905Y-110916723D01*
X104961905Y-110916723D02*
X104914286Y-110726247D01*
X104914286Y-110726247D02*
X104914286Y-110583390D01*
X104914286Y-110583390D02*
X104961905Y-110392914D01*
X104961905Y-110392914D02*
X105009524Y-110297676D01*
X105009524Y-110297676D02*
X105104762Y-110202438D01*
X105104762Y-110202438D02*
X105247619Y-110154819D01*
X105247619Y-110154819D02*
X105342857Y-110154819D01*
X105342857Y-110154819D02*
X105485714Y-110202438D01*
X105485714Y-110202438D02*
X105533333Y-110250057D01*
X106104762Y-110583390D02*
X106009524Y-110535771D01*
X106009524Y-110535771D02*
X105961905Y-110488152D01*
X105961905Y-110488152D02*
X105914286Y-110392914D01*
X105914286Y-110392914D02*
X105914286Y-110345295D01*
X105914286Y-110345295D02*
X105961905Y-110250057D01*
X105961905Y-110250057D02*
X106009524Y-110202438D01*
X106009524Y-110202438D02*
X106104762Y-110154819D01*
X106104762Y-110154819D02*
X106295238Y-110154819D01*
X106295238Y-110154819D02*
X106390476Y-110202438D01*
X106390476Y-110202438D02*
X106438095Y-110250057D01*
X106438095Y-110250057D02*
X106485714Y-110345295D01*
X106485714Y-110345295D02*
X106485714Y-110392914D01*
X106485714Y-110392914D02*
X106438095Y-110488152D01*
X106438095Y-110488152D02*
X106390476Y-110535771D01*
X106390476Y-110535771D02*
X106295238Y-110583390D01*
X106295238Y-110583390D02*
X106104762Y-110583390D01*
X106104762Y-110583390D02*
X106009524Y-110631009D01*
X106009524Y-110631009D02*
X105961905Y-110678628D01*
X105961905Y-110678628D02*
X105914286Y-110773866D01*
X105914286Y-110773866D02*
X105914286Y-110964342D01*
X105914286Y-110964342D02*
X105961905Y-111059580D01*
X105961905Y-111059580D02*
X106009524Y-111107200D01*
X106009524Y-111107200D02*
X106104762Y-111154819D01*
X106104762Y-111154819D02*
X106295238Y-111154819D01*
X106295238Y-111154819D02*
X106390476Y-111107200D01*
X106390476Y-111107200D02*
X106438095Y-111059580D01*
X106438095Y-111059580D02*
X106485714Y-110964342D01*
X106485714Y-110964342D02*
X106485714Y-110773866D01*
X106485714Y-110773866D02*
X106438095Y-110678628D01*
X106438095Y-110678628D02*
X106390476Y-110631009D01*
X106390476Y-110631009D02*
X106295238Y-110583390D01*
X87033333Y-103059580D02*
X86985714Y-103107200D01*
X86985714Y-103107200D02*
X86842857Y-103154819D01*
X86842857Y-103154819D02*
X86747619Y-103154819D01*
X86747619Y-103154819D02*
X86604762Y-103107200D01*
X86604762Y-103107200D02*
X86509524Y-103011961D01*
X86509524Y-103011961D02*
X86461905Y-102916723D01*
X86461905Y-102916723D02*
X86414286Y-102726247D01*
X86414286Y-102726247D02*
X86414286Y-102583390D01*
X86414286Y-102583390D02*
X86461905Y-102392914D01*
X86461905Y-102392914D02*
X86509524Y-102297676D01*
X86509524Y-102297676D02*
X86604762Y-102202438D01*
X86604762Y-102202438D02*
X86747619Y-102154819D01*
X86747619Y-102154819D02*
X86842857Y-102154819D01*
X86842857Y-102154819D02*
X86985714Y-102202438D01*
X86985714Y-102202438D02*
X87033333Y-102250057D01*
X87938095Y-102154819D02*
X87461905Y-102154819D01*
X87461905Y-102154819D02*
X87414286Y-102631009D01*
X87414286Y-102631009D02*
X87461905Y-102583390D01*
X87461905Y-102583390D02*
X87557143Y-102535771D01*
X87557143Y-102535771D02*
X87795238Y-102535771D01*
X87795238Y-102535771D02*
X87890476Y-102583390D01*
X87890476Y-102583390D02*
X87938095Y-102631009D01*
X87938095Y-102631009D02*
X87985714Y-102726247D01*
X87985714Y-102726247D02*
X87985714Y-102964342D01*
X87985714Y-102964342D02*
X87938095Y-103059580D01*
X87938095Y-103059580D02*
X87890476Y-103107200D01*
X87890476Y-103107200D02*
X87795238Y-103154819D01*
X87795238Y-103154819D02*
X87557143Y-103154819D01*
X87557143Y-103154819D02*
X87461905Y-103107200D01*
X87461905Y-103107200D02*
X87414286Y-103059580D01*
X121433333Y-103174819D02*
X121100000Y-102698628D01*
X120861905Y-103174819D02*
X120861905Y-102174819D01*
X120861905Y-102174819D02*
X121242857Y-102174819D01*
X121242857Y-102174819D02*
X121338095Y-102222438D01*
X121338095Y-102222438D02*
X121385714Y-102270057D01*
X121385714Y-102270057D02*
X121433333Y-102365295D01*
X121433333Y-102365295D02*
X121433333Y-102508152D01*
X121433333Y-102508152D02*
X121385714Y-102603390D01*
X121385714Y-102603390D02*
X121338095Y-102651009D01*
X121338095Y-102651009D02*
X121242857Y-102698628D01*
X121242857Y-102698628D02*
X120861905Y-102698628D01*
X122385714Y-103174819D02*
X121814286Y-103174819D01*
X122100000Y-103174819D02*
X122100000Y-102174819D01*
X122100000Y-102174819D02*
X122004762Y-102317676D01*
X122004762Y-102317676D02*
X121909524Y-102412914D01*
X121909524Y-102412914D02*
X121814286Y-102460533D01*
X124983333Y-114459580D02*
X124935714Y-114507200D01*
X124935714Y-114507200D02*
X124792857Y-114554819D01*
X124792857Y-114554819D02*
X124697619Y-114554819D01*
X124697619Y-114554819D02*
X124554762Y-114507200D01*
X124554762Y-114507200D02*
X124459524Y-114411961D01*
X124459524Y-114411961D02*
X124411905Y-114316723D01*
X124411905Y-114316723D02*
X124364286Y-114126247D01*
X124364286Y-114126247D02*
X124364286Y-113983390D01*
X124364286Y-113983390D02*
X124411905Y-113792914D01*
X124411905Y-113792914D02*
X124459524Y-113697676D01*
X124459524Y-113697676D02*
X124554762Y-113602438D01*
X124554762Y-113602438D02*
X124697619Y-113554819D01*
X124697619Y-113554819D02*
X124792857Y-113554819D01*
X124792857Y-113554819D02*
X124935714Y-113602438D01*
X124935714Y-113602438D02*
X124983333Y-113650057D01*
X125935714Y-114554819D02*
X125364286Y-114554819D01*
X125650000Y-114554819D02*
X125650000Y-113554819D01*
X125650000Y-113554819D02*
X125554762Y-113697676D01*
X125554762Y-113697676D02*
X125459524Y-113792914D01*
X125459524Y-113792914D02*
X125364286Y-113840533D01*
X96736666Y-112834819D02*
X96736666Y-113549104D01*
X96736666Y-113549104D02*
X96689047Y-113691961D01*
X96689047Y-113691961D02*
X96593809Y-113787200D01*
X96593809Y-113787200D02*
X96450952Y-113834819D01*
X96450952Y-113834819D02*
X96355714Y-113834819D01*
X97117619Y-112834819D02*
X97736666Y-112834819D01*
X97736666Y-112834819D02*
X97403333Y-113215771D01*
X97403333Y-113215771D02*
X97546190Y-113215771D01*
X97546190Y-113215771D02*
X97641428Y-113263390D01*
X97641428Y-113263390D02*
X97689047Y-113311009D01*
X97689047Y-113311009D02*
X97736666Y-113406247D01*
X97736666Y-113406247D02*
X97736666Y-113644342D01*
X97736666Y-113644342D02*
X97689047Y-113739580D01*
X97689047Y-113739580D02*
X97641428Y-113787200D01*
X97641428Y-113787200D02*
X97546190Y-113834819D01*
X97546190Y-113834819D02*
X97260476Y-113834819D01*
X97260476Y-113834819D02*
X97165238Y-113787200D01*
X97165238Y-113787200D02*
X97117619Y-113739580D01*
X95393333Y-96079819D02*
X95060000Y-95603628D01*
X94821905Y-96079819D02*
X94821905Y-95079819D01*
X94821905Y-95079819D02*
X95202857Y-95079819D01*
X95202857Y-95079819D02*
X95298095Y-95127438D01*
X95298095Y-95127438D02*
X95345714Y-95175057D01*
X95345714Y-95175057D02*
X95393333Y-95270295D01*
X95393333Y-95270295D02*
X95393333Y-95413152D01*
X95393333Y-95413152D02*
X95345714Y-95508390D01*
X95345714Y-95508390D02*
X95298095Y-95556009D01*
X95298095Y-95556009D02*
X95202857Y-95603628D01*
X95202857Y-95603628D02*
X94821905Y-95603628D01*
X96250476Y-95413152D02*
X96250476Y-96079819D01*
X96012381Y-95032200D02*
X95774286Y-95746485D01*
X95774286Y-95746485D02*
X96393333Y-95746485D01*
X118838095Y-108424819D02*
X118838095Y-109234342D01*
X118838095Y-109234342D02*
X118885714Y-109329580D01*
X118885714Y-109329580D02*
X118933333Y-109377200D01*
X118933333Y-109377200D02*
X119028571Y-109424819D01*
X119028571Y-109424819D02*
X119219047Y-109424819D01*
X119219047Y-109424819D02*
X119314285Y-109377200D01*
X119314285Y-109377200D02*
X119361904Y-109329580D01*
X119361904Y-109329580D02*
X119409523Y-109234342D01*
X119409523Y-109234342D02*
X119409523Y-108424819D01*
X120409523Y-109424819D02*
X119838095Y-109424819D01*
X120123809Y-109424819D02*
X120123809Y-108424819D01*
X120123809Y-108424819D02*
X120028571Y-108567676D01*
X120028571Y-108567676D02*
X119933333Y-108662914D01*
X119933333Y-108662914D02*
X119838095Y-108710533D01*
X96233333Y-111359580D02*
X96185714Y-111407200D01*
X96185714Y-111407200D02*
X96042857Y-111454819D01*
X96042857Y-111454819D02*
X95947619Y-111454819D01*
X95947619Y-111454819D02*
X95804762Y-111407200D01*
X95804762Y-111407200D02*
X95709524Y-111311961D01*
X95709524Y-111311961D02*
X95661905Y-111216723D01*
X95661905Y-111216723D02*
X95614286Y-111026247D01*
X95614286Y-111026247D02*
X95614286Y-110883390D01*
X95614286Y-110883390D02*
X95661905Y-110692914D01*
X95661905Y-110692914D02*
X95709524Y-110597676D01*
X95709524Y-110597676D02*
X95804762Y-110502438D01*
X95804762Y-110502438D02*
X95947619Y-110454819D01*
X95947619Y-110454819D02*
X96042857Y-110454819D01*
X96042857Y-110454819D02*
X96185714Y-110502438D01*
X96185714Y-110502438D02*
X96233333Y-110550057D01*
X97090476Y-110454819D02*
X96900000Y-110454819D01*
X96900000Y-110454819D02*
X96804762Y-110502438D01*
X96804762Y-110502438D02*
X96757143Y-110550057D01*
X96757143Y-110550057D02*
X96661905Y-110692914D01*
X96661905Y-110692914D02*
X96614286Y-110883390D01*
X96614286Y-110883390D02*
X96614286Y-111264342D01*
X96614286Y-111264342D02*
X96661905Y-111359580D01*
X96661905Y-111359580D02*
X96709524Y-111407200D01*
X96709524Y-111407200D02*
X96804762Y-111454819D01*
X96804762Y-111454819D02*
X96995238Y-111454819D01*
X96995238Y-111454819D02*
X97090476Y-111407200D01*
X97090476Y-111407200D02*
X97138095Y-111359580D01*
X97138095Y-111359580D02*
X97185714Y-111264342D01*
X97185714Y-111264342D02*
X97185714Y-111026247D01*
X97185714Y-111026247D02*
X97138095Y-110931009D01*
X97138095Y-110931009D02*
X97090476Y-110883390D01*
X97090476Y-110883390D02*
X96995238Y-110835771D01*
X96995238Y-110835771D02*
X96804762Y-110835771D01*
X96804762Y-110835771D02*
X96709524Y-110883390D01*
X96709524Y-110883390D02*
X96661905Y-110931009D01*
X96661905Y-110931009D02*
X96614286Y-111026247D01*
X95633333Y-102759580D02*
X95585714Y-102807200D01*
X95585714Y-102807200D02*
X95442857Y-102854819D01*
X95442857Y-102854819D02*
X95347619Y-102854819D01*
X95347619Y-102854819D02*
X95204762Y-102807200D01*
X95204762Y-102807200D02*
X95109524Y-102711961D01*
X95109524Y-102711961D02*
X95061905Y-102616723D01*
X95061905Y-102616723D02*
X95014286Y-102426247D01*
X95014286Y-102426247D02*
X95014286Y-102283390D01*
X95014286Y-102283390D02*
X95061905Y-102092914D01*
X95061905Y-102092914D02*
X95109524Y-101997676D01*
X95109524Y-101997676D02*
X95204762Y-101902438D01*
X95204762Y-101902438D02*
X95347619Y-101854819D01*
X95347619Y-101854819D02*
X95442857Y-101854819D01*
X95442857Y-101854819D02*
X95585714Y-101902438D01*
X95585714Y-101902438D02*
X95633333Y-101950057D01*
X95966667Y-101854819D02*
X96633333Y-101854819D01*
X96633333Y-101854819D02*
X96204762Y-102854819D01*
X121483333Y-114389580D02*
X121435714Y-114437200D01*
X121435714Y-114437200D02*
X121292857Y-114484819D01*
X121292857Y-114484819D02*
X121197619Y-114484819D01*
X121197619Y-114484819D02*
X121054762Y-114437200D01*
X121054762Y-114437200D02*
X120959524Y-114341961D01*
X120959524Y-114341961D02*
X120911905Y-114246723D01*
X120911905Y-114246723D02*
X120864286Y-114056247D01*
X120864286Y-114056247D02*
X120864286Y-113913390D01*
X120864286Y-113913390D02*
X120911905Y-113722914D01*
X120911905Y-113722914D02*
X120959524Y-113627676D01*
X120959524Y-113627676D02*
X121054762Y-113532438D01*
X121054762Y-113532438D02*
X121197619Y-113484819D01*
X121197619Y-113484819D02*
X121292857Y-113484819D01*
X121292857Y-113484819D02*
X121435714Y-113532438D01*
X121435714Y-113532438D02*
X121483333Y-113580057D01*
X122340476Y-113818152D02*
X122340476Y-114484819D01*
X122102381Y-113437200D02*
X121864286Y-114151485D01*
X121864286Y-114151485D02*
X122483333Y-114151485D01*
X125483333Y-104529580D02*
X125435714Y-104577200D01*
X125435714Y-104577200D02*
X125292857Y-104624819D01*
X125292857Y-104624819D02*
X125197619Y-104624819D01*
X125197619Y-104624819D02*
X125054762Y-104577200D01*
X125054762Y-104577200D02*
X124959524Y-104481961D01*
X124959524Y-104481961D02*
X124911905Y-104386723D01*
X124911905Y-104386723D02*
X124864286Y-104196247D01*
X124864286Y-104196247D02*
X124864286Y-104053390D01*
X124864286Y-104053390D02*
X124911905Y-103862914D01*
X124911905Y-103862914D02*
X124959524Y-103767676D01*
X124959524Y-103767676D02*
X125054762Y-103672438D01*
X125054762Y-103672438D02*
X125197619Y-103624819D01*
X125197619Y-103624819D02*
X125292857Y-103624819D01*
X125292857Y-103624819D02*
X125435714Y-103672438D01*
X125435714Y-103672438D02*
X125483333Y-103720057D01*
X125816667Y-103624819D02*
X126435714Y-103624819D01*
X126435714Y-103624819D02*
X126102381Y-104005771D01*
X126102381Y-104005771D02*
X126245238Y-104005771D01*
X126245238Y-104005771D02*
X126340476Y-104053390D01*
X126340476Y-104053390D02*
X126388095Y-104101009D01*
X126388095Y-104101009D02*
X126435714Y-104196247D01*
X126435714Y-104196247D02*
X126435714Y-104434342D01*
X126435714Y-104434342D02*
X126388095Y-104529580D01*
X126388095Y-104529580D02*
X126340476Y-104577200D01*
X126340476Y-104577200D02*
X126245238Y-104624819D01*
X126245238Y-104624819D02*
X125959524Y-104624819D01*
X125959524Y-104624819D02*
X125864286Y-104577200D01*
X125864286Y-104577200D02*
X125816667Y-104529580D01*
X104386666Y-98454819D02*
X104386666Y-99169104D01*
X104386666Y-99169104D02*
X104339047Y-99311961D01*
X104339047Y-99311961D02*
X104243809Y-99407200D01*
X104243809Y-99407200D02*
X104100952Y-99454819D01*
X104100952Y-99454819D02*
X104005714Y-99454819D01*
X105386666Y-99454819D02*
X104815238Y-99454819D01*
X105100952Y-99454819D02*
X105100952Y-98454819D01*
X105100952Y-98454819D02*
X105005714Y-98597676D01*
X105005714Y-98597676D02*
X104910476Y-98692914D01*
X104910476Y-98692914D02*
X104815238Y-98740533D01*
X127693333Y-112059580D02*
X127645714Y-112107200D01*
X127645714Y-112107200D02*
X127502857Y-112154819D01*
X127502857Y-112154819D02*
X127407619Y-112154819D01*
X127407619Y-112154819D02*
X127264762Y-112107200D01*
X127264762Y-112107200D02*
X127169524Y-112011961D01*
X127169524Y-112011961D02*
X127121905Y-111916723D01*
X127121905Y-111916723D02*
X127074286Y-111726247D01*
X127074286Y-111726247D02*
X127074286Y-111583390D01*
X127074286Y-111583390D02*
X127121905Y-111392914D01*
X127121905Y-111392914D02*
X127169524Y-111297676D01*
X127169524Y-111297676D02*
X127264762Y-111202438D01*
X127264762Y-111202438D02*
X127407619Y-111154819D01*
X127407619Y-111154819D02*
X127502857Y-111154819D01*
X127502857Y-111154819D02*
X127645714Y-111202438D01*
X127645714Y-111202438D02*
X127693333Y-111250057D01*
X128074286Y-111250057D02*
X128121905Y-111202438D01*
X128121905Y-111202438D02*
X128217143Y-111154819D01*
X128217143Y-111154819D02*
X128455238Y-111154819D01*
X128455238Y-111154819D02*
X128550476Y-111202438D01*
X128550476Y-111202438D02*
X128598095Y-111250057D01*
X128598095Y-111250057D02*
X128645714Y-111345295D01*
X128645714Y-111345295D02*
X128645714Y-111440533D01*
X128645714Y-111440533D02*
X128598095Y-111583390D01*
X128598095Y-111583390D02*
X128026667Y-112154819D01*
X128026667Y-112154819D02*
X128645714Y-112154819D01*
X87293333Y-96454819D02*
X86960000Y-95978628D01*
X86721905Y-96454819D02*
X86721905Y-95454819D01*
X86721905Y-95454819D02*
X87102857Y-95454819D01*
X87102857Y-95454819D02*
X87198095Y-95502438D01*
X87198095Y-95502438D02*
X87245714Y-95550057D01*
X87245714Y-95550057D02*
X87293333Y-95645295D01*
X87293333Y-95645295D02*
X87293333Y-95788152D01*
X87293333Y-95788152D02*
X87245714Y-95883390D01*
X87245714Y-95883390D02*
X87198095Y-95931009D01*
X87198095Y-95931009D02*
X87102857Y-95978628D01*
X87102857Y-95978628D02*
X86721905Y-95978628D01*
X87626667Y-95454819D02*
X88245714Y-95454819D01*
X88245714Y-95454819D02*
X87912381Y-95835771D01*
X87912381Y-95835771D02*
X88055238Y-95835771D01*
X88055238Y-95835771D02*
X88150476Y-95883390D01*
X88150476Y-95883390D02*
X88198095Y-95931009D01*
X88198095Y-95931009D02*
X88245714Y-96026247D01*
X88245714Y-96026247D02*
X88245714Y-96264342D01*
X88245714Y-96264342D02*
X88198095Y-96359580D01*
X88198095Y-96359580D02*
X88150476Y-96407200D01*
X88150476Y-96407200D02*
X88055238Y-96454819D01*
X88055238Y-96454819D02*
X87769524Y-96454819D01*
X87769524Y-96454819D02*
X87674286Y-96407200D01*
X87674286Y-96407200D02*
X87626667Y-96359580D01*
%TO.C,J4*%
D11*
X100400000Y-114380000D02*
X106220000Y-114380000D01*
X100400000Y-116100000D02*
X106220000Y-116100000D01*
X100400000Y-119200000D02*
X106220000Y-119200000D01*
X100400000Y-120200000D02*
X106220000Y-120200000D01*
X100400000Y-121120000D02*
X100400000Y-114380000D01*
X101740000Y-121120000D02*
X100400000Y-121120000D01*
X106220000Y-114380000D02*
X106220000Y-121120000D01*
X106220000Y-121120000D02*
X102340000Y-121120000D01*
X102040000Y-121120000D02*
X102480000Y-121730000D01*
X101600000Y-121730000D01*
X102040000Y-121120000D01*
G36*
X102480000Y-121730000D02*
G01*
X101600000Y-121730000D01*
X102040000Y-121120000D01*
X102480000Y-121730000D01*
G37*
%TO.C,U3*%
D10*
X96925000Y-98575000D02*
X96925000Y-102725000D01*
X102075000Y-98575000D02*
X102075000Y-102725000D01*
D11*
X101975000Y-97975000D02*
X102305000Y-97735000D01*
X102305000Y-98215000D01*
X101975000Y-97975000D01*
G36*
X102305000Y-98215000D02*
G01*
X101975000Y-97975000D01*
X102305000Y-97735000D01*
X102305000Y-98215000D01*
G37*
%TO.C,J2*%
X87160000Y-114380000D02*
X92980000Y-114380000D01*
X87160000Y-116100000D02*
X92980000Y-116100000D01*
X87160000Y-119200000D02*
X92980000Y-119200000D01*
X87160000Y-120200000D02*
X92980000Y-120200000D01*
X87160000Y-121120000D02*
X87160000Y-114380000D01*
X88500000Y-121120000D02*
X87160000Y-121120000D01*
X92980000Y-114380000D02*
X92980000Y-121120000D01*
X92980000Y-121120000D02*
X89100000Y-121120000D01*
X88800000Y-121120000D02*
X89240000Y-121730000D01*
X88360000Y-121730000D01*
X88800000Y-121120000D01*
G36*
X89240000Y-121730000D02*
G01*
X88360000Y-121730000D01*
X88800000Y-121120000D01*
X89240000Y-121730000D01*
G37*
%TO.C,U2*%
D10*
X88525000Y-98925000D02*
X88525000Y-103075000D01*
X93675000Y-98925000D02*
X93675000Y-103075000D01*
D11*
X93575000Y-98325000D02*
X93905000Y-98085000D01*
X93905000Y-98565000D01*
X93575000Y-98325000D01*
G36*
X93905000Y-98565000D02*
G01*
X93575000Y-98325000D01*
X93905000Y-98085000D01*
X93905000Y-98565000D01*
G37*
%TO.C,R2*%
X122577500Y-104657742D02*
X122577500Y-105132258D01*
X123622500Y-104657742D02*
X123622500Y-105132258D01*
%TO.C,C8*%
X96662500Y-107052500D02*
X97450000Y-107052500D01*
X97056250Y-106658750D02*
X97056250Y-107446250D01*
X97690000Y-106554437D02*
X97690000Y-107840000D01*
X97690000Y-106554437D02*
X98754437Y-105490000D01*
X97690000Y-111245563D02*
X97690000Y-109960000D01*
X97690000Y-111245563D02*
X98754437Y-112310000D01*
X98754437Y-105490000D02*
X104510000Y-105490000D01*
X98754437Y-112310000D02*
X104510000Y-112310000D01*
X104510000Y-105490000D02*
X104510000Y-107840000D01*
X104510000Y-112310000D02*
X104510000Y-109960000D01*
%TO.C,C5*%
X86890000Y-105015580D02*
X86890000Y-104734420D01*
X87910000Y-105015580D02*
X87910000Y-104734420D01*
%TO.C,R1*%
X121077500Y-104657742D02*
X121077500Y-105132258D01*
X122122500Y-104657742D02*
X122122500Y-105132258D01*
%TO.C,C1*%
X124784420Y-112090000D02*
X125065580Y-112090000D01*
X124784420Y-113110000D02*
X125065580Y-113110000D01*
%TO.C,J3*%
X93760000Y-114380000D02*
X99580000Y-114380000D01*
X93760000Y-116100000D02*
X99580000Y-116100000D01*
X93760000Y-119200000D02*
X99580000Y-119200000D01*
X93760000Y-120200000D02*
X99580000Y-120200000D01*
X93760000Y-121120000D02*
X93760000Y-114380000D01*
X95100000Y-121120000D02*
X93760000Y-121120000D01*
X99580000Y-114380000D02*
X99580000Y-121120000D01*
X99580000Y-121120000D02*
X95700000Y-121120000D01*
X95400000Y-121120000D02*
X95840000Y-121730000D01*
X94960000Y-121730000D01*
X95400000Y-121120000D01*
G36*
X95840000Y-121730000D02*
G01*
X94960000Y-121730000D01*
X95400000Y-121120000D01*
X95840000Y-121730000D01*
G37*
%TO.C,R4*%
X98162742Y-95102500D02*
X98637258Y-95102500D01*
X98162742Y-96147500D02*
X98637258Y-96147500D01*
%TO.C,U1*%
X121000000Y-107365000D02*
X121000000Y-107140000D01*
X121000000Y-111200000D02*
X121000000Y-110675000D01*
X121000000Y-111200000D02*
X121525000Y-111200000D01*
X121525000Y-106900000D02*
X121300000Y-106900000D01*
X125300000Y-106900000D02*
X124775000Y-106900000D01*
X125300000Y-106900000D02*
X125300000Y-107425000D01*
X125300000Y-111200000D02*
X124775000Y-111200000D01*
X125300000Y-111200000D02*
X125300000Y-110675000D01*
X121000000Y-106900000D02*
X120760000Y-106570000D01*
X121240000Y-106570000D01*
X121000000Y-106900000D01*
G36*
X121000000Y-106900000D02*
G01*
X120760000Y-106570000D01*
X121240000Y-106570000D01*
X121000000Y-106900000D01*
G37*
%TO.C,C6*%
X87162500Y-107052500D02*
X87950000Y-107052500D01*
X87556250Y-106658750D02*
X87556250Y-107446250D01*
X88190000Y-106554437D02*
X88190000Y-107840000D01*
X88190000Y-106554437D02*
X89254437Y-105490000D01*
X88190000Y-111245563D02*
X88190000Y-109960000D01*
X88190000Y-111245563D02*
X89254437Y-112310000D01*
X89254437Y-105490000D02*
X95010000Y-105490000D01*
X89254437Y-112310000D02*
X95010000Y-112310000D01*
X95010000Y-105490000D02*
X95010000Y-107840000D01*
X95010000Y-112310000D02*
X95010000Y-109960000D01*
%TO.C,C7*%
X95490000Y-104815580D02*
X95490000Y-104534420D01*
X96510000Y-104815580D02*
X96510000Y-104534420D01*
%TO.C,C4*%
X121790580Y-112090000D02*
X121509420Y-112090000D01*
X121790580Y-113110000D02*
X121509420Y-113110000D01*
%TO.C,C3*%
X125509420Y-105090000D02*
X125790580Y-105090000D01*
X125509420Y-106110000D02*
X125790580Y-106110000D01*
%TO.C,J1*%
X103530000Y-95140000D02*
X104860000Y-95140000D01*
X103530000Y-96470000D02*
X103530000Y-95140000D01*
X106130000Y-95140000D02*
X126510000Y-95140000D01*
X106130000Y-97800000D02*
X106130000Y-95140000D01*
X106130000Y-97800000D02*
X126510000Y-97800000D01*
X126510000Y-97800000D02*
X126510000Y-95140000D01*
%TO.C,C2*%
X128000580Y-109760000D02*
X127719420Y-109760000D01*
X128000580Y-110780000D02*
X127719420Y-110780000D01*
%TO.C,R3*%
X89762742Y-95477500D02*
X90237258Y-95477500D01*
X89762742Y-96522500D02*
X90237258Y-96522500D01*
%TD*%
M02*
