M48
; DRILL file KiCad 10.0.3 date 2026-06-26T09:30:21
; FORMAT={-:-/ absolute / metric / decimal}
; #@! TF.CreationDate,2026-06-26T09:30:21+03:00
; #@! TF.GenerationSoftware,Kicad,Pcbnew,10.0.3
; #@! TF.FileFunction,Plated,1,2,PTH
FMAT,2
METRIC
; #@! TA.AperFunction,Plated,PTH,ViaDrill
T1C0.300
; #@! TA.AperFunction,Plated,PTH,ComponentDrill
T2C0.330
; #@! TA.AperFunction,Plated,PTH,ComponentDrill
T3C1.000
; #@! TA.AperFunction,Plated,PTH,ComponentDrill
T4C1.200
%
G90
G05
T1
X90.465Y-98.125
X90.465Y-103.875
X91.735Y-98.125
X93.008Y-103.872
X98.865Y-97.775
X98.865Y-103.525
X100.135Y-97.775
X101.405Y-103.525
X125.7Y-112.6
X126.425Y-105.6
X126.76Y-111.37
T2
X89.8Y-100.35
X89.8Y-101.65
X91.1Y-100.35
X91.1Y-101.65
X92.4Y-100.35
X92.4Y-101.65
X98.2Y-100.0
X98.2Y-101.3
X99.5Y-100.0
X99.5Y-101.3
X100.8Y-100.0
X100.8Y-101.3
T3
X104.86Y-96.47
X107.4Y-96.47
X109.94Y-96.47
X112.48Y-96.47
X115.02Y-96.47
X117.56Y-96.47
X120.1Y-96.47
X122.64Y-96.47
X125.18Y-96.47
T4
X88.8Y-117.6
X91.34Y-117.6
X95.4Y-117.6
X97.94Y-117.6
X102.04Y-117.6
X104.58Y-117.6
M30
